<svg width="124" height="124" viewBox="0 0 124 124" fill="none" xmlns="http://www.w3.org/2000/svg">
<path fill-rule="evenodd" clip-rule="evenodd" d="M94.7878 16.0002L32.7649 6.25373C29.5443 5.74763 27.934 5.49459 26.8838 6.39271C25.8335 7.29083 25.8335 8.92088 25.8335 12.181V61H65.0862L45.7193 36.7913L47.281 35.542L67.9477 61.3753L68.4474 62L67.9477 62.6247L47.281 88.458L45.7193 87.2086L65.0862 63H25.8335V111.815C25.8335 115.075 25.8335 116.705 26.8838 117.603C27.934 118.501 29.5443 118.248 32.7649 117.742L94.7878 107.996C96.4005 107.742 97.2069 107.615 97.6869 107.054C98.1668 106.493 98.1668 105.677 98.1668 104.044V19.9517C98.1668 18.3192 98.1668 17.5029 97.6869 16.9416C97.2069 16.3803 96.4005 16.2536 94.7878 16.0002Z" fill="white"/>
</svg>
